<svg width="566" height="157" viewBox="0 0 566 157" fill="none" xmlns="http://www.w3.org/2000/svg">
<path d="M527.656 139.405C521.07 142.635 514.181 144.965 506.987 146.397C499.793 147.829 492.695 148.161 485.691 147.392C478.488 146.624 471.579 144.755 464.966 141.784C458.153 138.814 451.934 134.642 446.31 129.267C441.69 124.687 437.665 119.105 434.236 112.52C430.807 106.136 428.279 99.8468 426.652 93.654C423.203 82.6692 422.653 71.5715 425.004 60.361C427.354 49.1504 431.407 38.7323 437.165 29.1066C439.945 24.6942 443.427 20.6788 447.611 17.0602C451.596 13.6424 455.884 10.8233 460.474 8.60291C466.461 5.77625 472.953 3.84735 479.948 2.81623C486.943 1.58512 493.741 1.25488 500.344 1.82553C512.347 2.37216 522.96 5.32499 532.184 10.684C541.208 16.0439 548.538 22.9112 554.176 31.2863C559.613 39.6622 563.255 49.1461 565.102 59.7379C566.75 70.5307 566.099 81.5337 563.149 92.747C560.002 104.761 555.446 114.481 549.478 121.908C543.312 129.536 536.038 135.368 527.656 139.405ZM518.477 99.2457C521.465 96.4324 523.749 92.9222 525.331 88.7151C526.912 84.508 527.892 80.1036 528.272 75.5019C528.652 71.1001 528.332 66.6015 527.312 62.006C526.092 57.6114 524.275 53.6194 521.859 50.0302C519.845 47.0391 516.234 44.5551 511.025 42.5783C505.816 40.6014 500.411 39.4254 494.809 39.0503C488.408 38.6788 482.815 40.4037 478.032 44.225C473.25 48.2463 469.672 53.1623 467.298 58.9729C464.724 64.7844 463.552 71.0897 463.782 77.8887C464.012 84.6877 465.84 90.8797 469.265 96.4645C471.682 100.454 475.095 103.339 479.503 105.119C483.712 107.1 488.216 108.08 493.016 108.059C497.617 108.239 502.214 107.518 506.807 105.898C511.401 104.477 515.291 102.26 518.477 99.2457Z" fill="black"/>
<path d="M408.52 110.575C408.531 112.975 408.543 115.675 408.556 118.675C408.571 121.875 408.485 125.075 408.299 128.276C408.114 131.677 407.828 134.878 407.442 137.88C406.856 141.083 406.068 143.886 405.079 146.29C403.495 149.898 401.006 152.309 397.611 153.524C394.217 154.939 390.52 155.555 386.519 155.373C382.319 155.392 379.016 154.706 376.61 153.317C374.204 151.928 372.395 150.036 371.185 147.641C369.975 145.447 369.263 142.85 369.05 139.851C368.638 137.052 368.424 134.053 368.41 130.853C366.624 134.061 364.236 136.672 361.245 138.685C358.054 140.7 354.861 142.314 351.666 143.528C348.472 144.742 345.575 145.555 342.977 145.967C340.38 146.578 338.881 146.885 338.481 146.887C333.483 147.309 328.983 147.429 324.983 147.247C320.782 147.065 316.178 146.186 311.171 144.608C307.965 143.422 304.658 141.737 301.248 139.552C297.839 137.567 294.829 135.181 292.216 132.392C289.604 129.604 287.89 126.511 287.075 123.115C286.061 119.919 286.446 116.518 288.23 112.91C291.007 107.897 294.096 105.384 297.496 105.368C300.897 105.553 304.6 106.137 308.604 107.119C310.806 107.509 313.41 108.398 316.416 109.784C319.422 111.171 322.026 112.059 324.228 112.45C331.032 113.419 337.03 112.893 342.221 110.87C347.412 108.847 351.901 106.427 355.689 103.61C360.074 100.19 363.856 96.2733 367.037 91.8591L366.845 48.6595C366.821 43.2596 366.896 37.6592 367.07 31.8584C367.044 26.0584 367.82 20.755 369.399 15.948C370.779 11.3418 373.262 7.5307 376.848 4.51472C380.236 1.69963 385.23 0.477398 391.832 0.848043C395.433 1.03203 398.641 2.71779 401.455 5.90531C404.27 9.29282 405.984 12.5852 406.599 15.7825C407.012 18.7807 407.328 22.3793 407.547 26.5784C407.765 30.7775 407.985 35.1764 408.205 39.7755C408.226 44.3755 408.246 48.9754 408.267 53.5754C408.288 58.3753 408.308 62.7753 408.326 66.7752L408.52 110.575Z" fill="black"/>
<path d="M242.659 142.095C236.073 145.324 229.184 147.655 221.99 149.087C214.796 150.519 207.698 150.85 200.694 150.081C193.491 149.313 186.582 147.444 179.969 144.473C173.156 141.504 166.937 137.331 161.313 131.956C156.693 127.377 152.668 121.795 149.239 115.21C145.81 108.825 143.282 102.536 141.655 96.3432C138.206 85.3585 137.657 74.2608 140.007 63.0502C142.357 51.8397 146.411 41.4215 152.168 31.7958C154.948 27.3834 158.43 23.368 162.614 19.7493C166.599 16.3316 170.887 13.5125 175.477 11.2921C181.464 8.46541 187.956 6.53651 194.951 5.50539C201.946 4.27427 208.745 3.94404 215.347 4.51468C227.35 5.06131 237.963 8.01414 247.187 13.3732C256.211 18.7331 263.541 25.6005 269.179 33.9755C274.616 42.3514 278.258 51.8353 280.105 62.4272C281.753 73.22 281.102 84.223 278.152 95.4362C275.005 107.45 270.449 117.171 264.482 124.597C258.315 132.225 251.041 138.057 242.659 142.095ZM233.481 101.935C236.468 99.1216 238.752 95.6114 240.334 91.4044C241.915 87.1973 242.895 82.7929 243.275 78.1911C243.655 73.7894 243.335 69.2908 242.315 64.6953C241.095 60.3007 239.278 56.3087 236.862 52.7194C234.848 49.7283 231.237 47.2444 226.028 45.2675C220.82 43.2907 215.414 42.1147 209.813 41.7396C203.411 41.3681 197.818 43.093 193.035 46.9143C188.253 50.9356 184.675 55.8515 182.301 61.6621C179.727 67.4737 178.555 73.7789 178.785 80.578C179.015 87.377 180.843 93.5689 184.268 99.1538C186.685 103.143 190.098 106.028 194.506 107.808C198.715 109.79 203.219 110.77 208.019 110.748C212.62 110.928 217.217 110.207 221.81 108.587C226.404 107.166 230.294 104.949 233.481 101.935Z" fill="black"/>
<path d="M122.524 111.909C122.534 114.309 122.546 117.009 122.56 120.009C122.574 123.209 122.488 126.409 122.302 129.61C122.117 133.011 121.832 136.212 121.445 139.214C120.859 142.417 120.072 145.22 119.082 147.625C117.498 151.232 115.009 153.643 111.614 154.858C108.221 156.273 104.523 156.889 100.523 156.707C96.3226 156.726 93.0195 156.041 90.6133 154.651C88.2071 153.262 86.3987 151.37 85.188 148.975C83.9782 146.781 83.2667 144.184 83.0533 141.185C82.6409 138.387 82.4275 135.387 82.4133 132.188C80.6276 135.395 78.2392 138.006 75.2481 140.019C72.057 142.034 68.8641 143.648 65.6695 144.862C62.4749 146.076 59.5784 146.889 56.9802 147.301C54.3829 147.912 52.8843 148.219 52.4843 148.221C47.4861 148.643 42.9866 148.763 38.9858 148.581C34.7849 148.399 30.181 147.52 25.1739 145.942C21.9686 144.756 18.6611 143.071 15.2514 140.886C11.8425 138.901 8.83186 136.515 6.21943 133.726C3.607 130.938 1.89319 127.846 1.07808 124.449C0.0638578 121.254 0.44875 117.852 2.23272 114.244C5.01046 109.232 8.0993 106.718 11.4993 106.703C14.9001 106.888 18.6028 107.471 22.6072 108.453C24.809 108.843 27.4129 109.732 30.4191 111.119C33.4253 112.505 36.0293 113.394 38.231 113.784C45.0354 114.754 51.0331 114.227 56.2242 112.204C61.4152 110.181 65.9045 107.761 69.692 104.944C74.0769 101.524 77.8595 97.6074 81.0399 93.1932L80.8478 49.9937C80.8238 44.5937 80.8989 38.9933 81.0731 33.1925C81.0473 27.3926 81.8237 22.0891 83.4023 17.282C84.7819 12.6758 87.2649 8.86473 90.8516 5.84875C94.2391 3.03366 99.2337 1.81143 105.835 2.18207C109.436 2.36606 112.644 4.05182 115.458 7.23934C118.273 10.6269 119.988 13.9193 120.602 17.1166C121.015 20.1147 121.331 23.7134 121.55 27.9124C121.769 32.1115 121.988 36.5106 122.209 41.1096C122.229 45.7096 122.25 50.3096 122.27 54.9095C122.291 59.7095 122.311 64.1094 122.329 68.1094L122.524 111.909Z" fill="black"/>
</svg>
