<svg width="80" height="80" viewBox="0 0 80 80" fill="none" xmlns="http://www.w3.org/2000/svg">
<path d="M56.6663 10H23.333C17.6663 10 13.333 14.3333 13.333 20V22.6667C13.333 25.3333 12.9997 27.6667 11.9997 30.3333C10.9997 34 7.33301 36.6667 3.33301 36.6667V43.3333C7.33301 43.3333 10.9997 46 11.9997 49.6667C12.9997 52 13.333 54.6667 13.333 57.3333V60C13.333 65.6667 17.6663 70 23.333 70H56.6663C62.333 70 66.6663 65.6667 66.6663 60V57.3333C66.6663 54.6667 66.9997 52.3333 67.9997 49.6667C69.333 46 72.6663 43.3333 76.6663 43.3333V36.6667C72.6663 36.6667 68.9997 34 67.9997 30.3333C66.9997 28 66.6663 25.3333 66.6663 22.6667V20C66.6663 14.3333 62.333 10 56.6663 10Z" stroke="#3A3A3A" stroke-width="5" stroke-miterlimit="10" stroke-linejoin="round"/>
<path d="M32.6689 39.9993H42.3356C46.3356 39.9993 49.3356 42.9993 49.3356 46.9993C49.3356 50.9993 46.3356 53.9993 42.3356 53.9993H32.6689V25.9993H42.3356C46.3356 25.9993 49.3356 28.9993 49.3356 32.9993C49.3356 36.9993 46.3356 39.9993 42.3356 39.9993H32.6689Z" stroke="#3A3A3A" stroke-width="5" stroke-miterlimit="10" stroke-linecap="round" stroke-linejoin="round"/>
</svg>
