<svg width="80" height="80" viewBox="0 0 80 80" fill="none" xmlns="http://www.w3.org/2000/svg">
<path d="M50.0003 73.3334H30.0003C13.3337 73.3334 6.66699 66.6668 6.66699 50.0001V30.0001C6.66699 13.3334 13.3337 6.66675 30.0003 6.66675H50.0003C66.667 6.66675 73.3337 13.3334 73.3337 30.0001V50.0001C73.3337 66.6668 66.667 73.3334 50.0003 73.3334Z" stroke="#3A3A3A" stroke-width="5" stroke-linecap="round" stroke-linejoin="round"/>
<path d="M34.6699 48.2709C35.3704 47.0935 35.8866 45.7396 36.2184 44.2091C36.5502 42.6785 36.6977 41.1284 36.6608 39.5586C36.6239 37.9496 36.4212 36.3994 36.0525 34.9081C35.6838 33.3776 35.1677 32.0236 34.504 30.8463C33.9879 29.9829 33.3243 29.2765 32.5132 28.7271C31.7021 28.1777 30.7988 27.7656 29.8034 27.4909C28.8079 27.1769 27.7387 26.9611 26.5958 26.8434C25.4898 26.7256 24.4022 26.6667 23.333 26.6667C23.3699 27.8048 23.3883 28.9037 23.3883 29.9633C23.3883 31.0229 23.3883 32.1414 23.3883 33.3187C23.3514 34.7315 23.333 36.1051 23.333 37.4394C23.333 38.7737 23.333 40.0688 23.333 41.3246V53.3334C24.4759 53.2942 25.5635 53.2353 26.5958 53.1568C27.665 53.0391 28.6789 52.8036 29.6374 52.4504C30.6329 52.0972 31.5362 51.6067 32.3472 50.9787C33.1952 50.3116 33.9694 49.409 34.6699 48.2709Z" stroke="#3A3A3A" stroke-width="5" stroke-linejoin="round"/>
<path d="M59.9997 40.1248C59.9619 40.6866 59.8674 41.3003 59.7162 41.9661C59.5651 42.611 59.3855 43.256 59.1777 43.9009C58.9698 44.5251 58.7998 45.0452 58.6675 45.4613C58.3462 46.4183 58.0628 47.3129 57.8171 48.1451C57.5715 48.9773 57.2786 49.8927 56.9385 50.8914C56.8251 51.1826 56.7117 51.4739 56.5983 51.7652C56.5038 52.0564 56.381 52.3165 56.2298 52.5453C56.0976 52.7742 55.9275 52.9614 55.7196 53.1071C55.5307 53.2527 55.2945 53.3255 55.011 53.3255C54.6898 53.3255 54.4063 53.2007 54.1607 52.951C53.9339 52.7014 53.7355 52.3893 53.5654 52.0148C53.4143 51.6403 53.282 51.245 53.1686 50.8289C53.0552 50.4128 52.9607 50.0488 52.8852 49.7367C52.6395 48.8213 52.4222 47.9891 52.2332 47.2401C52.0443 46.4703 51.8742 45.7838 51.723 45.1804C51.553 45.7838 51.3829 46.4391 51.2128 47.1465C51.0428 47.8538 50.8254 48.6548 50.5609 49.5494C50.4853 49.8615 50.3908 50.2464 50.2775 50.7041C50.1641 51.141 50.0223 51.5571 49.8523 51.9524C49.7011 52.3477 49.5027 52.6806 49.257 52.951C49.0303 53.2423 48.7563 53.3671 48.435 53.3255C47.9815 53.3047 47.5847 53.1071 47.2446 52.7326C46.9233 52.3373 46.6399 51.8692 46.3942 51.3283C46.1675 50.7873 45.9691 50.2256 45.799 49.6431C45.6289 49.0605 45.4872 48.5508 45.3738 48.1139C45.2227 47.5522 45.0431 46.928 44.8353 46.2415C44.6274 45.5549 44.4196 44.8579 44.2117 44.1506C44.0227 43.4224 43.8432 42.7046 43.6731 41.9973C43.5031 41.2691 43.3897 40.6033 43.333 40" stroke="#3A3A3A" stroke-width="5" stroke-linecap="round" stroke-linejoin="round"/>
</svg>
