<svg width="80" height="80" viewBox="0 0 80 80" fill="none" xmlns="http://www.w3.org/2000/svg">
<path d="M40.0042 6.66626H29.0042C22.6709 6.66626 17.6709 11.6663 17.6709 17.6663C17.6709 23.6663 22.6709 28.6663 28.6709 28.6663H40.0042V6.66626Z" stroke="#3A3A3A" stroke-width="5" stroke-miterlimit="10"/>
<path d="M40.0039 29.0002H29.0039C23.0039 29.0002 18.0039 34.0002 18.0039 40.0002C18.0039 46.0002 23.0039 51.0002 29.0039 51.0002H40.0039V29.0002Z" stroke="#3A3A3A" stroke-width="5" stroke-miterlimit="10"/>
<path d="M40.0039 50.999H29.0039C23.0039 50.999 18.0039 55.999 18.0039 61.999C18.0039 67.999 23.0039 72.999 29.0039 72.999C35.0039 72.999 40.0039 67.999 40.0039 61.999V50.999Z" stroke="#3A3A3A" stroke-width="5" stroke-miterlimit="10"/>
<path d="M40.002 6.66626H51.002C57.002 6.66626 62.002 11.6663 62.002 17.6663C62.002 23.6663 57.002 28.6663 51.002 28.6663H40.002V6.66626Z" stroke="#3A3A3A" stroke-width="5" stroke-miterlimit="10"/>
<path d="M51.002 28.9995C57.002 28.9995 62.002 33.9995 62.002 39.9995C62.002 45.9995 57.002 50.9995 51.002 50.9995C45.002 50.9995 40.002 45.9995 40.002 39.9995C40.002 33.9995 45.002 28.9995 51.002 28.9995Z" stroke="#3A3A3A" stroke-width="5" stroke-miterlimit="10"/>
</svg>
