<svg width="80" height="80" viewBox="0 0 80 80" fill="none" xmlns="http://www.w3.org/2000/svg">
<path d="M48.907 50.7945C52.9132 49.9618 56.5483 48.5181 59.3742 46.3988C64.2 42.7795 66.6663 37.1895 66.6663 31.6666C66.6663 27.7923 65.1975 24.1751 62.6545 21.1115C61.2375 19.4043 65.3822 6.66664 61.6997 8.38214C58.0172 10.0976 52.6177 13.8948 49.7873 13.0568C46.7572 12.1596 43.4552 11.6666 39.9997 11.6666C36.9983 11.6666 34.1128 12.0385 31.4207 12.7242C27.5073 13.7208 23.7648 9.99998 19.9997 8.38214C16.2344 6.76431 18.289 19.9388 17.1707 21.3243C14.735 24.342 13.333 27.8815 13.333 31.6666C13.333 37.1895 16.3178 42.7795 21.1435 46.3988C24.3582 48.8096 28.3897 50.3461 32.8998 51.1035" stroke="#3A3A3A" stroke-width="5" stroke-linecap="round"/>
<path d="M32.9002 51.1033C30.9694 53.2286 30.0039 55.2466 30.0039 57.1576C30.0039 59.0684 30.0039 63.9108 30.0039 71.6846" stroke="#3A3A3A" stroke-width="5" stroke-linecap="round"/>
<path d="M48.9072 50.7944C50.7369 53.1958 51.6517 55.3519 51.6517 57.2628C51.6517 59.1738 51.6517 63.9809 51.6517 71.6846" stroke="#3A3A3A" stroke-width="5" stroke-linecap="round"/>
<path d="M10 52.0259C11.4981 52.209 12.6092 52.8979 13.3333 54.0924C14.4195 55.8839 18.457 62.53 23.0418 62.53C26.0985 62.53 28.4192 62.53 30.004 62.53" stroke="#3A3A3A" stroke-width="5" stroke-linecap="round"/>
</svg>
