<svg width="80" height="80" viewBox="0 0 80 80" fill="none" xmlns="http://www.w3.org/2000/svg">
<path d="M50.0003 73.3334H30.0003C13.3337 73.3334 6.66699 66.6668 6.66699 50.0001V30.0001C6.66699 13.3334 13.3337 6.66675 30.0003 6.66675H50.0003C66.667 6.66675 73.3337 13.3334 73.3337 30.0001V50.0001C73.3337 66.6668 66.667 73.3334 50.0003 73.3334Z" stroke="#3A3A3A" stroke-width="5" stroke-linecap="round" stroke-linejoin="round"/>
<path d="M58.3333 36.6667H54C51.6667 36.6667 50 38.6667 50 40.6667C50 43.0001 52 44.6667 54 44.6667C56.3333 44.6667 58 46.6667 58 48.6667C58 51.0001 56 52.6667 54 52.6667H50" stroke="#3A3A3A" stroke-width="5" stroke-miterlimit="10" stroke-linecap="round" stroke-linejoin="round"/>
<path d="M33.333 50.5674C33.4956 51.0986 33.7598 51.5512 34.1257 51.925C34.4102 52.2398 34.7558 52.4956 35.1623 52.6923C35.5891 52.8891 36.0261 53.0366 36.4733 53.135C37.205 53.3515 37.957 53.3908 38.7293 53.2531C39.5017 53.135 40.2131 52.8694 40.8635 52.4562C41.4326 52.0824 41.8798 51.6102 42.205 51.0396C42.5302 50.4887 42.7639 49.8886 42.9062 49.2393C43.0688 48.59 43.1704 47.9309 43.2111 47.2619C43.272 46.593 43.3127 45.9634 43.333 45.3731C43.333 44.9993 43.333 44.4582 43.333 43.7499C43.333 43.0416 43.333 42.3136 43.333 41.5659C43.333 40.7986 43.333 40.0903 43.333 39.441C43.333 38.7917 43.333 38.349 43.333 38.1129C43.333 37.8768 43.3228 37.6407 43.3025 37.4046C43.2822 37.1488 43.2415 36.9029 43.1806 36.6667" stroke="#3A3A3A" stroke-width="5" stroke-linecap="round" stroke-linejoin="round"/>
</svg>
