<svg width="80" height="80" viewBox="0 0 80 80" fill="none" xmlns="http://www.w3.org/2000/svg">
<path d="M50.0003 73.3334H30.0003C13.3337 73.3334 6.66699 66.6668 6.66699 50.0001V30.0001C6.66699 13.3334 13.3337 6.66675 30.0003 6.66675H50.0003C66.667 6.66675 73.3337 13.3334 73.3337 30.0001V50.0001C73.3337 66.6668 66.667 73.3334 50.0003 73.3334Z" stroke="#3A3A3A" stroke-width="5" stroke-linecap="round" stroke-linejoin="round"/>
<path d="M25 53.3334V26.6667H31.6667C35.3333 26.6667 38.3333 29.6667 38.3333 33.3334C38.3333 37.0001 35.3333 40.0001 31.6667 40.0001H25" stroke="#3A3A3A" stroke-width="5" stroke-miterlimit="10" stroke-linecap="round" stroke-linejoin="round"/>
<path d="M55.0003 36.6667H50.667C48.3337 36.6667 46.667 38.6667 46.667 40.6667C46.667 43.0001 48.667 44.6667 50.667 44.6667C53.0003 44.6667 54.667 46.6667 54.667 48.6667C54.667 51.0001 52.667 52.6667 50.667 52.6667H46.667" stroke="#3A3A3A" stroke-width="5" stroke-miterlimit="10" stroke-linecap="round" stroke-linejoin="round"/>
</svg>
