<svg width="80" height="80" viewBox="0 0 80 80" fill="none" xmlns="http://www.w3.org/2000/svg">
<path d="M50.0003 73.3334H30.0003C13.3337 73.3334 6.66699 66.6668 6.66699 50.0001V30.0001C6.66699 13.3334 13.3337 6.66675 30.0003 6.66675H50.0003C66.667 6.66675 73.3337 13.3334 73.3337 30.0001V50.0001C73.3337 66.6668 66.667 73.3334 50.0003 73.3334Z" stroke="#3A3A3A" stroke-width="5" stroke-linecap="round" stroke-linejoin="round"/>
<path d="M25 53.3334V26.6667H31.6667C35.3333 26.6667 38.3333 29.6667 38.3333 33.3334C38.3333 37.0001 35.3333 40.0001 31.6667 40.0001H25" stroke="#3A3A3A" stroke-width="5" stroke-miterlimit="10" stroke-linecap="round" stroke-linejoin="round"/>
<path d="M49.1673 36.6667C49.1673 35.286 48.0479 34.1667 46.6672 34.1667C45.2865 34.1668 44.1673 35.2861 44.1673 36.6668L49.1673 36.6667ZM46.6677 53.3334L44.1677 53.3368C44.1696 54.7169 45.2894 55.8344 46.6694 55.8334C48.0495 55.8325 49.1677 54.7134 49.1677 53.3334L46.6677 53.3334ZM55.4177 42.6783C56.6136 43.3683 58.1424 42.9582 58.8324 41.7622C59.5224 40.5663 59.1123 39.0375 57.9163 38.3475L55.4177 42.6783ZM46.667 50.0001L44.167 50L44.167 50.0734L44.1713 50.1467L46.667 50.0001ZM44.1673 36.6668L44.1677 53.3335L49.1677 53.3334L49.1673 36.6667L44.1673 36.6668ZM52.2227 41.7309C52.6139 41.7309 54.0902 41.9125 55.4177 42.6783L57.9163 38.3475C55.6884 37.0621 53.313 36.7309 52.2227 36.7309V41.7309ZM49.1677 53.33C49.1672 52.9488 49.2497 51.334 49.1627 49.8534L44.1713 50.1467C44.2496 51.4786 44.1665 52.4681 44.1677 53.3368L49.1677 53.33ZM49.167 50.0002C49.1671 47.4413 49.6667 45.1445 50.4289 43.5835C51.2391 41.9243 51.9724 41.7309 52.2227 41.7309V36.7309C49.1064 36.7309 47.062 39.0834 45.9359 41.3897C44.762 43.794 44.1671 46.8818 44.167 50L49.167 50.0002Z" fill="#3A3A3A"/>
</svg>
