<svg width="80" height="80" viewBox="0 0 80 80" fill="none" xmlns="http://www.w3.org/2000/svg">
<path d="M73.3337 40.0956C73.3337 47.9854 58.4098 54.3813 40.0003 54.3813C21.5908 54.3813 6.66699 47.9854 6.66699 40.0956C6.66699 32.2058 21.5908 25.8099 40.0003 25.8099C58.4098 25.8099 73.3337 32.2058 73.3337 40.0956Z" stroke="#3A3A3A" stroke-width="5"/>
<path d="M24.1236 69.4053C31.061 73.1631 43.793 63.0871 52.5612 46.8999C61.3295 30.7126 62.8138 14.544 55.8764 10.7861C48.939 7.02829 36.207 17.1043 27.4387 33.2915C18.6705 49.4788 17.1862 65.6474 24.1236 69.4053Z" stroke="#3A3A3A" stroke-width="5"/>
<path d="M55.8765 69.4053C48.9391 73.1631 36.2071 63.0871 27.4388 46.8999C18.6706 30.7126 17.1863 14.544 24.1237 10.7861C31.0611 7.02829 43.7931 17.1043 52.5613 33.2915C61.3296 49.4788 62.8139 65.6474 55.8765 69.4053Z" stroke="#3A3A3A" stroke-width="5"/>
<path d="M35.2384 40.0956C35.2384 42.7255 37.3704 44.8575 40.0003 44.8575C42.6303 44.8575 44.7622 42.7255 44.7622 40.0956C44.7622 37.4657 42.6303 35.3337 40.0003 35.3337C37.3704 35.3337 35.2384 37.4657 35.2384 40.0956Z" stroke="#3A3A3A" stroke-width="5"/>
</svg>
