<svg width="80" height="80" viewBox="0 0 80 80" fill="none" xmlns="http://www.w3.org/2000/svg">
<path d="M50.0003 73.3334H30.0003C13.3337 73.3334 6.66699 66.6668 6.66699 50.0001V30.0001C6.66699 13.3334 13.3337 6.66675 30.0003 6.66675H50.0003C66.667 6.66675 73.3337 13.3334 73.3337 30.0001V50.0001C73.3337 66.6668 66.667 73.3334 50.0003 73.3334Z" stroke="#3A3A3A" stroke-width="5" stroke-linecap="round" stroke-linejoin="round"/>
<path d="M58.3333 36.6667H54C51.6667 36.6667 50 38.6667 50 40.6667C50 43.0001 52 44.6667 54 44.6667C56.3333 44.6667 58 46.6667 58 48.6667C58 51.0001 56 52.6667 54 52.6667H50" stroke="#3A3A3A" stroke-width="5" stroke-miterlimit="10" stroke-linecap="round" stroke-linejoin="round"/>
<path d="M33.333 36.6667H38.333M43.333 36.6667H38.333M38.333 36.6667V53.3334" stroke="#3A3A3A" stroke-width="5" stroke-linecap="round"/>
</svg>
